GIL03_xfast2_ik
nRows=3
nColumns=375

# SIMM Motion File Header:
name GIL03_xfast2_ik
datacolumns 375
datarows 3
otherdata 1
range 0.06667000 0.08333000
endheader
time	pelvis_tx	pelvis_ty	pelvis_tz	pelvis_tilt	pelvis_list	pelvis_rotation	hip_flexion_r	hip_adduction_r	hip_rotation_r	knee_angle_r	ankle_angle_r	hip_flexion_l	hip_adduction_l	hip_rotation_l	knee_angle_l	ankle_angle_l	lumbar_extension	lumbar_bending	lumbar_rotation	subtalar_angle_r	mtp_angle_r	subtalar_angle_l	mtp_angle_l	asis_r_px	asis_r_py	asis_r_pz	asis_l_px	asis_l_py	asis_l_pz	midasis_px	midasis_py	midasis_pz	psis_r_px	psis_r_py	psis_r_pz	psis_l_px	psis_l_py	psis_l_pz	hip_r_px	hip_r_py	hip_r_pz	hip_l_px	hip_l_py	hip_l_pz	midhip_px	midhip_py	midhip_pz	epicondLat_r_px	epicondLat_r_py	epicondLat_r_pz	epicondMed_r_px	epicondMed_r_py	epicondMed_r_pz	thighwand_r_px	thighwand_r_py	thighwand_r_pz	upperleg1_r_px	upperleg1_r_py	upperleg1_r_pz	upperleg2_r_px	upperleg2_r_py	upperleg2_r_pz	malleolusLat_r_px	malleolusLat_r_py	malleolusLat_r_pz	malleolusMedv_r_px	malleolusMedv_r_py	malleolusMedv_r_pz	shankwand_r_px	shankwand_r_py	shankwand_r_pz	lowerleg1_r_px	lowerleg1_r_py	lowerleg1_r_pz	knee_r_px	knee_r_py	knee_r_pz	ankle_r_px	ankle_r_py	ankle_r_pz	toe_r_px	toe_r_py	toe_r_pz	epicondLat_l_px	epicondLat_l_py	epicondLat_l_pz	epicondMed_l_px	epicondMed_l_py	epicondMed_l_pz	thighwand_l_px	thighwand_l_py	thighwand_l_pz	upperleg1_l_px	upperleg1_l_py	upperleg1_l_pz	upperleg2_l_px	upperleg2_l_py	upperleg2_l_pz	malleolusLat_l_px	malleolusLat_l_py	malleolusLat_l_pz	malleolusMedv_l_px	malleolusMedv_l_py	malleolusMedv_l_pz	shankwand_l_px	shankwand_l_py	shankwand_l_pz	lowerleg1_l_px	lowerleg1_l_py	lowerleg1_l_pz	knee_l_px	knee_l_py	knee_l_pz	ankle_l_px	ankle_l_py	ankle_l_pz	toe_l_px	toe_l_py	toe_l_pz	subclavicle_r_px	subclavicle_r_py	subclavicle_r_pz	subclavicle_l_px	subclavicle_l_py	subclavicle_l_pz	neck_px	neck_py	neck_pz	sternalnotch_px	sternalnotch_py	sternalnotch_pz	xyphoidprocess_px	xyphoidprocess_py	xyphoidprocess_pz	midhip_tx	midhip_ty	midhip_tz	hip_r_tx	hip_r_ty	hip_r_tz	hip_l_tx	hip_l_ty	hip_l_tz	knee_r_tx	knee_r_ty	knee_r_tz	knee_l_tx	knee_l_ty	knee_l_tz	ankle_r_tx	ankle_r_ty	ankle_r_tz	ankle_l_tx	ankle_l_ty	ankle_l_tz	midasis_tx	midasis_ty	midasis_tz	asis_r_tx	asis_r_ty	asis_r_tz	asis_l_tx	asis_l_ty	asis_l_tz	psis_r_tx	psis_r_ty	psis_r_tz	psis_l_tx	psis_l_ty	psis_l_tz	epicondLat_r_tx	epicondLat_r_ty	epicondLat_r_tz	epicondLat_l_tx	epicondLat_l_ty	epicondLat_l_tz	epicondMed_r_tx	epicondMed_r_ty	epicondMed_r_tz	epicondMed_l_tx	epicondMed_l_ty	epicondMed_l_tz	malleolusLat_r_tx	malleolusLat_r_ty	malleolusLat_r_tz	malleolusLat_l_tx	malleolusLat_l_ty	malleolusLat_l_tz	malleolusMedv_r_tx	malleolusMedv_r_ty	malleolusMedv_r_tz	malleolusMedv_l_tx	malleolusMedv_l_ty	malleolusMedv_l_tz	neck_tx	neck_ty	neck_tz	subclavicle_r_tx	subclavicle_r_ty	subclavicle_r_tz	subclavicle_l_tx	subclavicle_l_ty	subclavicle_l_tz	sternalnotch_tx	sternalnotch_ty	sternalnotch_tz	xyphoidprocess_tx	xyphoidprocess_ty	xyphoidprocess_tz	thighwand_r_tx	thighwand_r_ty	thighwand_r_tz	thighwand_l_tx	thighwand_l_ty	thighwand_l_tz	upperleg1_r_tx	upperleg1_r_ty	upperleg1_r_tz	upperleg1_l_tx	upperleg1_l_ty	upperleg1_l_tz	upperleg2_r_tx	upperleg2_r_ty	upperleg2_r_tz	upperleg2_l_tx	upperleg2_l_ty	upperleg2_l_tz	shankwand_r_tx	shankwand_r_ty	shankwand_r_tz	shankwand_l_tx	shankwand_l_ty	shankwand_l_tz	lowerleg1_r_tx	lowerleg1_r_ty	lowerleg1_r_tz	lowerleg1_l_tx	lowerleg1_l_ty	lowerleg1_l_tz	toe_r_tx	toe_r_ty	toe_r_tz	toe_l_tx	toe_l_ty	toe_l_tz	ground_force_vx	ground_force_vy	ground_force_vz	ground_force_px	ground_force_py	ground_force_pz	ground_force_vx	ground_force_vy	ground_force_vz	ground_force_px	ground_force_py	ground_force_pz	ground_torque_x	ground_torque_y	ground_torque_z	ground_torque_x	ground_torque_y	ground_torque_z	ground_marker_px	ground_marker_py	ground_marker_pz	ground_marker_px	ground_marker_py	ground_marker_pz	ground_marker_px	ground_marker_py	ground_marker_pz	ground_marker_px	ground_marker_py	ground_marker_pz	ground_marker_px	ground_marker_py	ground_marker_pz	ground_marker_px	ground_marker_py	ground_marker_pz	ground_marker_px	ground_marker_py	ground_marker_pz	ground_marker_px	ground_marker_py	ground_marker_pz	ground_marker_px	ground_marker_py	ground_marker_pz	ground_marker_px	ground_marker_py	ground_marker_pz	ground_marker_px	ground_marker_py	ground_marker_pz	ground_marker_px	ground_marker_py	ground_marker_pz	ground_marker_px	ground_marker_py	ground_marker_pz	ground_marker_px	ground_marker_py	ground_marker_pz	ground_marker_px	ground_marker_py	ground_marker_pz	ground_marker_px	ground_marker_py	ground_marker_pz	ground_marker_px	ground_marker_py	ground_marker_pz	ground_marker_px	ground_marker_py	ground_marker_pz	ground_marker_px	ground_marker_py	ground_marker_pz	ground_marker_px	ground_marker_py	ground_marker_pz	ground_marker_px	ground_marker_py	ground_marker_pz	ground_marker_px	ground_marker_py	ground_marker_pz	ground_marker_px	ground_marker_py	ground_marker_pz	ground_marker_px	ground_marker_py	ground_marker_pz	ground_marker_px	ground_marker_py	ground_marker_pz	ground_marker_px	ground_marker_py	ground_marker_pz	ground_marker_px	ground_marker_py	ground_marker_pz	ground_marker_px	ground_marker_py	ground_marker_pz	ground_marker_px	ground_marker_py	ground_marker_pz	ground_marker_px	ground_marker_py	ground_marker_pz	ground_marker_px	ground_marker_py	ground_marker_pz	ground_marker_px	ground_marker_py	ground_marker_pz	ground_marker_px	ground_marker_py	ground_marker_pz	ground_marker_px	ground_marker_py	ground_marker_pz	ground_marker_px	ground_marker_py	ground_marker_pz	ground_marker_px	ground_marker_py	ground_marker_pz	ground_marker_px	ground_marker_py	ground_marker_pz
      0.06667000	      0.52717647	      0.87763470	     -0.26070364	      1.30651794	      2.67750761	    -11.02141005	    -12.50091986	     -5.71182175	     -4.51044014	    -35.70066843	    -14.13921274	     19.63405789	     -0.65013854	     -1.56648138	    -18.65978340	      2.56133843	    -12.38824075	     -6.37987562	     18.85956233	      0.00000000	      0.00000000	      0.00000000	      0.00000000	      0.55750100	      0.87702447	     -0.16020914	      0.57824002	      0.88079160	     -0.36081343	      0.53800613	      0.87778312	     -0.25859656	      0.41437960	      0.92793909	     -0.25080397	      0.41971667	      0.92967868	     -0.30542264	      0.46116437	      0.82155701	     -0.20925396	      0.48618214	      0.82816414	     -0.33830198	      0.47367326	      0.82486058	     -0.27377797	      0.39077711	      0.43762130	     -0.13762144	      0.38976867	      0.43012238	     -0.24689691	      0.56911335	      0.56577189	     -0.17486820	      0.50279018	      0.63580677	     -0.14424547	      0.47228335	      0.55536272	     -0.14321962	      0.06652194	      0.18158531	     -0.22723604	      0.11444517	      0.16270020	     -0.27963826	      0.13492913	      0.26960724	     -0.13947352	      0.15381121	      0.26783481	     -0.17733331	      0.38389535	      0.45169489	     -0.20469596	      0.09592891	      0.18099861	     -0.26007102	      0.10292152	      0.06648775	     -0.20428012	      0.64781254	      0.47597576	     -0.39188172	      0.62085449	      0.45337539	     -0.28838620	      0.69765325	      0.66765308	     -0.30330106	      0.62624776	      0.68773676	     -0.37203340	      0.65431034	      0.60446627	     -0.36582166	      0.63426678	      0.06450358	     -0.39654914	      0.65174251	      0.07407067	     -0.33158128	      0.59240770	      0.18200746	     -0.45453522	      0.60533155	      0.18674583	     -0.41351691	      0.61775145	      0.47651637	     -0.33511088	      0.63370120	      0.07816370	     -0.35322996	      0.75984229	      0.04675697	     -0.38722079	      0.55804753	      1.26472104	     -0.22999989	      0.54377827	      1.26265744	     -0.33825949	      0.45107793	      1.31912635	     -0.26763751	      0.53515740	      1.27283771	     -0.28749047	      0.61024992	      1.11472315	     -0.29311704	      0.48108200	      0.83050700	     -0.28738800	      0.47079700	      0.81139900	     -0.22395900	      0.48476000	      0.81333100	     -0.34058200	      0.38807500	      0.43857900	     -0.21451700	      0.61407700	      0.47132200	     -0.33193600	      0.09869400	      0.17693500	     -0.25013300	      0.62973700	      0.06586700	     -0.33858100	      0.53721300	      0.89142100	     -0.26784300	      0.51710000	      0.88878200	     -0.17052700	      0.55732600	      0.89406100	     -0.36515900	      0.38028900	      0.92253500	     -0.27833200	      0.39078600	      0.92265200	     -0.33177100	      0.38478300	      0.44069900	     -0.15965700	      0.63555700	      0.47818900	     -0.38155200	      0.39833000	      0.43691800	     -0.27256200	      0.61639100	      0.45213000	     -0.29522100	      0.08611300	      0.18605400	     -0.21490800	      0.63923300	      0.06684500	     -0.37587800	      0.12283800	      0.16965500	     -0.27273800	      0.64857900	      0.08070300	     -0.31091600	      0.46064600	      1.34132400	     -0.26914000	      0.55229200	      1.25163100	     -0.23097300	      0.54532100	      1.25149100	     -0.33428500	      0.53569600	      1.26382700	     -0.28654800	      0.56252600	      1.09138400	     -0.28747800	      0.56564800	      0.58266000	     -0.18696000	      0.67419400	      0.66674600	     -0.28607100	      0.49239200	      0.64643100	     -0.15968300	      0.61581300	      0.69032200	     -0.36688200	      0.46691500	      0.56483300	     -0.16228400	      0.65001500	      0.60936300	     -0.35777800	      0.15937600	      0.27271800	     -0.13668900	      0.60920900	      0.18386600	     -0.44264500	      0.17011800	      0.27274800	     -0.17541000	      0.61618400	      0.19047700	     -0.39971600	      0.12664600	      0.06601800	     -0.21684200	      0.75997600	      0.04900600	     -0.34143100	      0.00000000	      0.00000000	      0.00000000	      1.17915784	      0.00000000	     -0.23045659	    -23.19657289	    272.25706277	      5.83762988	      0.62014380	      0.00000000	     -0.34126553	      0.00000000	      0.00000000	      0.00000000	      0.00000000	     -0.20246613	      0.00000000	      0.48108160	      0.83050728	     -0.28738764	      0.47079736	      0.81139916	     -0.22395912	      0.48475984	      0.81333125	     -0.34058222	      0.38807520	      0.43857881	     -0.21451706	      0.61407727	      0.47132161	     -0.33193594	      0.09869380	      0.17693451	     -0.25013325	      0.62973708	      0.06586704	     -0.33858076	      0.53721285	      0.89142132	     -0.26784307	      0.51710010	      0.88878202	     -0.17052677	      0.55732554	      0.89406067	     -0.36515939	      0.38028932	      0.92253458	     -0.27833155	      0.39078638	      0.92265183	     -0.33177078	      0.38478273	      0.44069877	     -0.15965664	      0.63555652	      0.47818884	     -0.38155183	      0.39832994	      0.43691817	     -0.27256230	      0.61639088	      0.45213050	     -0.29522091	      0.08611275	      0.18605429	     -0.21490827	      0.63923341	      0.06684506	     -0.37587836	      0.12283836	      0.16965501	     -0.27273759	      0.64857912	      0.08070339	     -0.31091586	      0.46064645	      1.34132397	     -0.26913983	      0.55229229	      1.25163102	     -0.23097348	      0.54532081	      1.25149059	     -0.33428529	      0.53569609	      1.26382673	     -0.28654838	      0.56252569	      1.09138441	     -0.28747791	      0.56564844	      0.58266050	     -0.18696009	      0.67419398	      0.66674638	     -0.28607148	      0.49239153	      0.64643109	     -0.15968265	      0.61581278	      0.69032204	     -0.36688203	      0.46691498	      0.56483269	     -0.16228420	      0.65001470	      0.60936296	     -0.35777834	      0.15937591	      0.27271849	     -0.13668898	      0.60920948	      0.18386595	     -0.44264531	      0.17011803	      0.27274787	     -0.17540988	      0.61618376	      0.19047724	     -0.39971587	      0.12664592	      0.06601837	     -0.21684217	      0.75997555	      0.04900623	     -0.34143096
      0.07500000	      0.54430746	      0.87931092	     -0.26190087	      1.54462696	      3.03671147	    -10.52042424	    -10.71399775	     -6.38690048	     -5.27688457	    -39.66273919	    -15.24689975	     18.61563570	      0.13623803	     -1.86092604	    -19.23428271	      3.01288237	    -12.64391764	     -6.74484778	     18.35554092	      0.00000000	      0.00000000	      0.00000000	      0.00000000	      0.57552764	      0.87823482	     -0.16168493	      0.59446307	      0.88330717	     -0.36243876	      0.55515464	      0.87949665	     -0.25988909	      0.43137471	      0.92903324	     -0.25069565	      0.43621747	      0.93112675	     -0.30534796	      0.47901253	      0.82261977	     -0.21020890	      0.50285036	      0.83012035	     -0.33943132	      0.49093145	      0.82637006	     -0.27482011	      0.42118853	      0.43755956	     -0.13354576	      0.42086228	      0.42854160	     -0.24271053	      0.59529668	      0.57107635	     -0.17192971	      0.52655396	      0.63926761	     -0.14250541	      0.49874355	      0.55787080	     -0.14047913	      0.08841493	      0.19042291	     -0.22680501	      0.13611446	      0.17011992	     -0.27888015	      0.15899336	      0.27581456	     -0.13816746	      0.17811994	      0.27353760	     -0.17587725	      0.41444013	      0.44968844	     -0.20068848	      0.11805798	      0.18896220	     -0.25939958	      0.11872414	      0.07359938	     -0.20494562	      0.65845217	      0.47519624	     -0.39280537	      0.63218429	      0.45353378	     -0.28893251	      0.71214536	      0.66651311	     -0.30570934	      0.64037549	      0.68736346	     -0.37383114	      0.66720345	      0.60369818	     -0.36747109	      0.63449413	      0.06396459	     -0.39583832	      0.65288812	      0.07330171	     -0.33109087	      0.59502850	      0.18230052	     -0.45381074	      0.60849831	      0.18684602	     -0.41294655	      0.62910014	      0.47646801	     -0.33572354	      0.63473047	      0.07777992	     -0.35256534	      0.75989966	      0.04402200	     -0.38786989	      0.57508076	      1.26607500	     -0.23066532	      0.56061429	      1.26390202	     -0.33889660	      0.46807971	      1.32051077	     -0.26816926	      0.55209210	      1.27414386	     -0.28812330	      0.62706838	      1.11597279	     -0.29371171	      0.49827100	      0.83171900	     -0.28837900	      0.48857300	      0.81230700	     -0.22521900	      0.50174400	      0.81514600	     -0.34191600	      0.41823800	      0.43622900	     -0.21146500	      0.62556600	      0.47153700	     -0.33262800	      0.12094300	      0.18553300	     -0.24837000	      0.63088700	      0.06554200	     -0.33907100	      0.55432400	      0.89295200	     -0.26896400	      0.53482500	      0.88950700	     -0.17127800	      0.57382300	      0.89639700	     -0.36664900	      0.39724600	      0.92327300	     -0.27754700	      0.40726400	      0.92400800	     -0.33103300	      0.41455400	      0.43892200	     -0.15665500	      0.64679600	      0.47784200	     -0.38242500	      0.43092600	      0.43273700	     -0.26956000	      0.62664400	      0.45156000	     -0.29692200	      0.10892400	      0.19456900	     -0.21292800	      0.64085600	      0.06626300	     -0.37625100	      0.14401100	      0.17788500	     -0.27184200	      0.65111700	      0.07991300	     -0.31174700	      0.47764600	      1.34258900	     -0.26963300	      0.56947100	      1.25265500	     -0.23181900	      0.56194700	      1.25221400	     -0.33503400	      0.55248900	      1.26488600	     -0.28727500	      0.57907700	      1.09221600	     -0.28785900	      0.59111400	      0.58552000	     -0.18459900	      0.68926500	      0.66631100	     -0.28800600	      0.51580000	      0.64680000	     -0.15783500	      0.63095600	      0.68967400	     -0.36864300	      0.49374300	      0.56409000	     -0.15995900	      0.66327000	      0.60794400	     -0.35996600	      0.18524500	      0.27734800	     -0.13420500	      0.61464100	      0.18383300	     -0.44353600	      0.19637400	      0.27711600	     -0.17294400	      0.62224800	      0.18991000	     -0.40124600	      0.14311100	      0.07225400	     -0.21598100	      0.76126300	      0.04625900	     -0.34171500	      0.00000000	      0.00000000	      0.00000000	      1.18152527	      0.00000000	     -0.23133441	    -30.40099666	    314.92735725	     16.82458069	      0.62728076	      0.00000000	     -0.34280136	      0.00000000	      0.00000000	      0.00000000	      0.00000000	     -0.65578027	      0.00000000	      0.49827054	      0.83171910	     -0.28837857	      0.48857331	      0.81230658	     -0.22521931	      0.50174439	      0.81514633	     -0.34191588	      0.41823822	      0.43622872	     -0.21146508	      0.62556559	      0.47153729	     -0.33262762	      0.12094307	      0.18553282	     -0.24836975	      0.63088685	      0.06554186	     -0.33907145	      0.55432361	      0.89295214	     -0.26896355	      0.53482455	      0.88950694	     -0.17127772	      0.57382268	      0.89639735	     -0.36664939	      0.39724562	      0.92327291	     -0.27754706	      0.40726379	      0.92400759	     -0.33103344	      0.41455436	      0.43892229	     -0.15665473	      0.64679623	      0.47784173	     -0.38242486	      0.43092588	      0.43273655	     -0.26956040	      0.62664431	      0.45155969	     -0.29692218	      0.10892402	      0.19456854	     -0.21292756	      0.64085633	      0.06626263	     -0.37625125	      0.14401083	      0.17788459	     -0.27184191	      0.65111703	      0.07991319	     -0.31174713	      0.47764629	      1.34258878	     -0.26963252	      0.56947148	      1.25265491	     -0.23181917	      0.56194741	      1.25221431	     -0.33503434	      0.55248868	      1.26488566	     -0.28727543	      0.57907653	      1.09221637	     -0.28785932	      0.59111381	      0.58552015	     -0.18459938	      0.68926525	      0.66631055	     -0.28800553	      0.51580000	      0.64680004	     -0.15783542	      0.63095564	      0.68967432	     -0.36864251	      0.49374294	      0.56408966	     -0.15995929	      0.66326982	      0.60794437	     -0.35996556	      0.18524481	      0.27734825	     -0.13420536	      0.61464071	      0.18383342	     -0.44353598	      0.19637370	      0.27711603	     -0.17294426	      0.62224776	      0.18991017	     -0.40124595	      0.14311078	      0.07225440	     -0.21598056	      0.76126283	      0.04625910	     -0.34171504
      0.08333000	      0.56105170	      0.88069873	     -0.26298497	      1.70920851	      3.33800733	    -10.05701078	     -8.74873104	     -6.99386582	     -6.05385711	    -43.55654860	    -15.53897062	     17.57360936	      0.82614858	     -2.11980810	    -19.63250963	      3.55683380	    -12.89497899	     -7.02992159	     17.98895905	      0.00000000	      0.00000000	      0.00000000	      0.00000000	      0.59309898	      0.87922459	     -0.16303552	      0.61036474	      0.88536660	     -0.36390998	      0.57191441	      0.88091063	     -0.26106144	      0.44805146	      0.92998645	     -0.25060210	      0.45243734	      0.93237011	     -0.30528109	      0.49637193	      0.82353118	     -0.21104489	      0.51912058	      0.83175916	     -0.34041928	      0.50774625	      0.82764517	     -0.27573208	      0.45185118	      0.43771488	     -0.12946119	      0.45248540	      0.42722831	     -0.23849333	      0.62131523	      0.57683427	     -0.16872238	      0.55001634	      0.64291686	     -0.14059841	      0.52511122	      0.56061379	     -0.13761421	      0.11206629	      0.19857383	     -0.22716245	      0.15967935	      0.17704576	     -0.27882304	      0.18423336	      0.28149142	     -0.13746156	      0.20367592	      0.27878242	     -0.17498072	      0.44539485	      0.44788116	     -0.19664933	      0.14199104	      0.19634759	     -0.25945492	      0.13810756	      0.08071030	     -0.20572230	      0.66820726	      0.47403430	     -0.39369143	      0.64258433	      0.45326710	     -0.28947519	      0.72595041	      0.66479332	     -0.30797356	      0.65388606	      0.68655621	     -0.37549643	      0.67936323	      0.60247872	     -0.36901890	      0.63454256	      0.06332254	     -0.39504719	      0.65379609	      0.07243177	     -0.33051753	      0.59731654	      0.18237177	     -0.45304059	      0.61129629	      0.18672967	     -0.41232751	      0.63952144	      0.47603170	     -0.33632483	      0.63553681	      0.07726944	     -0.35182722	      0.75980719	      0.04159128	     -0.38839597	      0.59219330	      1.26708457	     -0.23124789	      0.57737272	      1.26489824	     -0.33943098	      0.48516002	      1.32168170	     -0.26842386	      0.56903176	      1.27517125	     -0.28863390	      0.64373206	      1.11687642	     -0.29441038	      0.51500400	      0.83250200	     -0.28959300	      0.50595700	      0.81302800	     -0.22638700	      0.51840200	      0.81664900	     -0.34314200	      0.44899900	      0.43418400	     -0.20848500	      0.63620800	      0.47146100	     -0.33340700	      0.14489800	      0.19359000	     -0.24687200	      0.63182500	      0.06527800	     -0.33951500	      0.57116600	      0.89417100	     -0.27002100	      0.55223100	      0.89003300	     -0.17199200	      0.59010200	      0.89830900	     -0.36805100	      0.41398900	      0.92387300	     -0.27689600	      0.42351900	      0.92518200	     -0.33045400	      0.44479100	      0.43740300	     -0.15374100	      0.65719700	      0.47721600	     -0.38337300	      0.46507600	      0.42929000	     -0.26767500	      0.63553600	      0.44971500	     -0.29767100	      0.13342500	      0.20239900	     -0.21119300	      0.64215100	      0.06572500	     -0.37660200	      0.16724800	      0.18558700	     -0.27064100	      0.65296200	      0.07930200	     -0.31234400	      0.49472900	      1.34369500	     -0.26990100	      0.58656300	      1.25289300	     -0.23247300	      0.57862600	      1.25238000	     -0.33548700	      0.56931200	      1.26557800	     -0.28779800	      0.59502800	      1.09234000	     -0.28828300	      0.61645300	      0.58877100	     -0.18202400	      0.70372600	      0.66524600	     -0.28990700	      0.53843500	      0.64756300	     -0.15544200	      0.64529500	      0.68725800	     -0.37069200	      0.52043600	      0.56338700	     -0.15769600	      0.67545200	      0.60473100	     -0.36211600	      0.21250800	      0.28137500	     -0.13188800	      0.61937000	      0.18367900	     -0.44434600	      0.22416100	      0.28083500	     -0.17073000	      0.62736100	      0.18928600	     -0.40263900	      0.16298700	      0.07868400	     -0.21465100	      0.76224700	      0.04399000	     -0.34194100	      0.00000000	      0.00000000	      0.00000000	      1.18395422	      0.00000000	     -0.23217752	    -36.65783541	    355.43909098	     26.25966090	      0.63334534	      0.00000000	     -0.34393198	      0.00000000	      0.00000000	      0.00000000	      0.00000000	     -0.99329639	      0.00000000	      0.51500392	      0.83250225	     -0.28959256	      0.50595665	      0.81302840	     -0.22638701	      0.51840174	      0.81664854	     -0.34314165	      0.44899899	      0.43418387	     -0.20848489	      0.63620752	      0.47146136	     -0.33340716	      0.14489804	      0.19359030	     -0.24687219	      0.63182509	      0.06527830	     -0.33951524	      0.57116646	      0.89417076	     -0.27002150	      0.55223066	      0.89003301	     -0.17199226	      0.59010226	      0.89830852	     -0.36805072	      0.41398948	      0.92387307	     -0.27689618	      0.42351946	      0.92518193	     -0.33045352	      0.44479126	      0.43740341	     -0.15374067	      0.65719682	      0.47721556	     -0.38337302	      0.46507561	      0.42929009	     -0.26767451	      0.63553560	      0.44971508	     -0.29767138	      0.13342516	      0.20239884	     -0.21119261	      0.64215070	      0.06572460	     -0.37660202	      0.16724832	      0.18558678	     -0.27064082	      0.65296179	      0.07930195	     -0.31234351	      0.49472862	      1.34369493	     -0.26990086	      0.58656335	      1.25289273	     -0.23247284	      0.57862580	      1.25237989	     -0.33548653	      0.56931221	      1.26557755	     -0.28779802	      0.59502834	      1.09233952	     -0.28828308	      0.61645252	      0.58877057	     -0.18202356	      0.70372635	      0.66524619	     -0.28990668	      0.53843480	      0.64756292	     -0.15544194	      0.64529508	      0.68725777	     -0.37069169	      0.52043551	      0.56338656	     -0.15769574	      0.67545235	      0.60473132	     -0.36211604	      0.21250832	      0.28137472	     -0.13188757	      0.61937022	      0.18367913	     -0.44434574	      0.22416130	      0.28083470	     -0.17073022	      0.62736118	      0.18928604	     -0.40263918	      0.16298746	      0.07868420	     -0.21465066	      0.76224709	      0.04398988	     -0.34194136
